HIERARCHY
ROOT ui
{
	 OFFSET 0 0 0
	 CHANNELS 3 XPosition YPosition Z Position
	 EndSite
	 {
	 OFFSET 0 -1 0
	 }
}
ROOT li
{
	 OFFSET 0 0 0
	 CHANNELS 3 XPosition YPosition Z Position
	 EndSite
	 {
	 OFFSET 0 -1 0
	 }
}
ROOT ul
{
	 OFFSET 0 0 0
	 CHANNELS 3 XPosition YPosition Z Position
	 EndSite
	 {
	 OFFSET 0 -1 0
	 }
}
ROOT ll
{
	 OFFSET 0 0 0
	 CHANNELS 3 XPosition YPosition Z Position
	 EndSite
	 {
	 OFFSET 0 -1 0
	 }
}
ROOT tt
{
	 OFFSET 0 0 0
	 CHANNELS 3 XPosition YPosition Z Position
	 EndSite
	 {
	 OFFSET 0 -1 0
	 }
}
ROOT tb
{
	 OFFSET 0 0 0
	 CHANNELS 3 XPosition YPosition Z Position
	 EndSite
	 {
	 OFFSET 0 -1 0
	 }
}
ROOT td
{
	 OFFSET 0 0 0
	 CHANNELS 3 XPosition YPosition Z Position
	 EndSite
	 {
	 OFFSET 0 -1 0
	 }
}
ROOT v
{
	 OFFSET 0 0 0
	 CHANNELS 3 XPosition YPosition Z Position
	 EndSite
	 {
	 OFFSET 0 -1 0
	 }
}
ROOT bn
{
	 OFFSET 0 0 0
	 CHANNELS 3 XPosition YPosition Z Position
	 EndSite
	 {
	 OFFSET 0 -1 0
	 }
}
MOTION
Frames: 16
Frame Time: 0.002
-9.564899653196334E-5	-9.484429955482483E-4	0		0.7819452514648437	-2.5502001953125	0		-0.9895849609375	-0.14364016723632814	0		-0.48909567260742187	-2.23918408203125	0		0.9222794799804688	-0.5312409057617188	0		2.6867431640625	0.027719554901123048	0		4.30655322265625	0.42704522705078124	0		5.4883388671875	0.2225165557861328	0		-0.40484228515625	5.83552490234375	0		
-0.049512397766113284	9.063209891319275E-4	0		0.7574336547851562	-2.546797607421875	0		-1.0899354248046875	-0.13689356994628907	0		-0.4866123046875	-2.237166259765625	0		0.9228134765625	-0.531258544921875	0		2.682371337890625	0.031697925567626954	0		4.29613525390625	0.4270443115234375	0		5.47409375	0.23352262878417968	0		-0.38983377075195313	5.8453388671875	0		
-0.0039042251110076903	0.00418659496307373	0		0.7619242553710938	-2.542875732421875	0		-1.05439892578125	-0.13739643859863282	0		-0.5140525512695312	-2.229653564453125	0		0.8814244384765625	-0.5255813598632812	0		2.690185546875	0.04747513198852539	0		4.30491845703125	0.4397272644042969	0		5.48460205078125	0.23011759948730467	0		-0.3890030822753906	5.84538330078125	0		
0.0045851049423217775	0.002080436944961548	0		0.7633604736328125	-2.54090234375	0		-1.045783203125	-0.13145394897460938	0		-0.4408611450195313	-2.24381591796875	0		0.9268836059570312	-0.5283453369140625	0		2.679512939453125	0.035559017181396486	0		4.300580078125	0.4466321716308594	0		5.49413525390625	0.22973455810546875	0		-0.3882026672363281	5.84542822265625	0		
-0.0028903820514678954	0.004243814945220947	0		0.7768153686523438	-2.536124755859375	0		-0.9834414672851562	-0.1404093475341797	0		-0.48333474731445314	-2.235048828125	0		0.9332482299804687	-0.5344569091796875	0		2.73034814453125	0.055628780364990235	0		4.3120888671875	0.4462813720703125	0		5.4798544921875	0.24276112365722657	0		-0.38744430541992186	5.8454765625	0		
-0.052417766571044924	0.006116483211517334	0		0.7531888427734375	-2.5337216796875	0		-1.0529556884765625	-0.13715879821777344	0		-0.4629206237792969	-2.231326904296875	0		0.9247247924804688	-0.53131201171875	0		2.682805908203125	0.05634739303588867	0		4.30869189453125	0.454192626953125	0		5.4951279296875	0.23130548095703124	0		-0.38770379638671876	5.8475458984375	0		
-1.7264699935913086E-4	-0.003710200071334839	0		0.763332763671875	-2.542877685546875	0		-1.0875533447265624	-0.13648484802246094	0		-0.5067899475097656	-2.241525146484375	0		0.9251055908203125	-0.5313087768554687	0		2.68321142578125	0.056276519775390624	0		4.31221435546875	0.4600019836425781	0		5.49550732421875	0.22911625671386718	0		-0.386087646484375	5.845587890625	0		
0.006285601139068604	0.0022369201183319093	0		0.7666729125976562	-2.53791064453125	0		-1.070118896484375	-0.1316790466308594	0		-0.4705096435546875	-2.2410615234375	0		0.9494560546875	-0.53070068359375	0		2.692352294921875	0.04306840515136719	0		4.305693359375	0.46599502563476564	0		5.50587353515625	0.22877685546875	0		-0.38352911376953125	5.843619140625	0		
0.006602694988250732	0.0022920188903808596	0		0.7611306762695312	-2.52378515625	0		-1.0757216796875	-0.12648277282714843	0		-0.5100526428222656	-2.227316162109375	0		0.9346876831054688	-0.5344279174804687	0		2.713072509765625	0.06668130493164062	0		4.31726220703125	0.47970001220703123	0		5.50619921875	0.228623779296875	0		-0.3839739379882813	5.84470556640625	0		
0.003831494092941284	-5.956220030784607E-4	0		0.7572357788085937	-2.528682373046875	0		-0.981663330078125	-0.13996900939941406	0		-0.45304705810546875	-2.23919775390625	0		0.92599951171875	-0.5312481689453125	0		2.68608740234375	0.05110439682006836	0		4.31957470703125	0.4805736083984375	0		5.496521484375	0.2306575469970703	0		-0.384469482421875	5.84579736328125	0		
0.0010240620374679565	-0.003477421998977661	0		0.746513916015625	-2.52145556640625	0		-1.086376220703125	-0.13609211730957033	0		-0.5276823120117188	-2.226847412109375	0		0.9262246704101562	-0.5312120971679688	0		2.699465576171875	0.058860244750976565	0		4.30883544921875	0.4806820068359375	0		5.49094189453125	0.24064039611816407	0		-0.3981977233886719	5.83611572265625	0		
-0.045692768096923825	0.0013912359476089477	0		0.7564891357421875	-2.530574951171875	0		-1.0511768798828125	-0.1365790557861328	0		-0.4955992431640625	-2.23030078125	0		0.9233661499023438	-0.53411767578125	0		2.68654248046875	0.051069091796875	0		4.31316064453125	0.48654986572265624	0		5.5028173828125	0.220339111328125	0		-0.3978051452636719	5.83620068359375	0		
0.004461684226989746	-3.792850077152252E-4	0		0.75966064453125	-2.526571533203125	0		-1.0788792724609375	-0.1289961700439453	0		-0.5175681762695312	-2.23483447265625	0		0.9452540893554687	-0.55043896484375	0		2.687147216796875	0.07606353759765624	0		4.30159326171875	0.5007017517089843	0		5.50713818359375	0.22818499755859376	0		-0.38230368041992185	5.84503369140625	0		
-2.95971006155014E-4	0.004787052154541015	0		0.751953125	-2.5143759765625	0		-0.9737755126953125	-0.13267054748535156	0		-0.4933573608398438	-2.2281474609375	0		0.935669189453125	-0.5342150268554687	0		2.69098193359375	0.057006546020507816	0		4.31276171875	0.5004785766601563	0		5.51564013671875	0.24797686767578125	0		-0.3819866027832031	5.84512646484375	0		
0.0047631669044494625	-2.109210044145584E-4	0		0.7598285522460938	-2.526443115234375	0		-1.0507080078125	-0.13624661254882814	0		-0.49733660888671877	-2.231979736328125	0		0.9238023071289062	-0.5339478149414062	0		2.723515625	0.07947610473632813	0		4.31291943359375	0.5004555358886719	0		5.5116552734375	0.23999258422851563	0		-0.3816932067871094	5.84522265625	0		
0.0018562740087509156	-0.0030693860054016114	0		0.7729798583984375	-2.52259326171875	0		-1.0505672607421874	-0.136132080078125	0		-0.5013124389648438	-2.235809326171875	0		0.9208659057617188	-0.5378275756835937	0		2.6785654296875	0.07427129364013672	0		4.319193359375	0.5073416137695312	0		5.5118046875	0.23995408630371093	0		-0.3814130554199219	5.8453212890625	0		
